<svg width="31" height="20" viewBox="0 0 31 20" fill="none" xmlns="http://www.w3.org/2000/svg">
<path d="M0.666992 -0.00195312V10V20.002H30.667V10V-0.00195312H0.666992Z" fill="#D80027"/>
<path d="M21.292 8.27136H16.9971L15.667 4.18152L14.3369 8.2655H10.042L13.5166 10.7909L12.1865 14.8749L15.6611 12.3495L19.1357 14.8749L17.8057 10.7909L21.292 8.27136ZM14.4893 10.4803L14.9404 9.09753H16.3936L16.8447 10.4803L15.667 11.3358L14.4893 10.4803ZM16.124 8.27136H15.21L15.667 6.86511L16.124 8.27136ZM17.5479 9.97058L17.2666 9.09753H18.749L17.5479 9.97058ZM14.0674 9.09753L13.7861 9.97058L12.5908 9.09753H14.0674ZM13.7627 12.7186L14.2197 11.3124L14.958 11.8514L13.7627 12.7186ZM16.3701 11.8456L17.1084 11.3065L17.5654 12.7128L16.3701 11.8456Z" fill="#6DA544"/>
</svg>
