<svg width="31" height="20" viewBox="0 0 31 20" fill="none" xmlns="http://www.w3.org/2000/svg">
<path d="M20.667 -0.00012207H10.667H0.666992V19.9998H10.667H20.667H30.667V-0.00012207H20.667Z" fill="#D80027"/>
<path d="M10.6668 0H0.666992V20.0002H10.6668V0Z" fill="#6DA544"/>
<path d="M20.6668 0H10.667V20.0002H20.6668V0Z" fill="#F0F0F0"/>
<path d="M12.8545 9.99988C12.8545 11.5531 14.1137 12.8124 15.667 12.8124C17.2203 12.8124 18.4795 11.5531 18.4795 9.99988V9.06238H12.8545V9.99988Z" fill="#6DA544"/>
<path d="M19.417 8.12488H16.6045C16.6045 7.60714 16.1847 7.18738 15.667 7.18738C15.1493 7.18738 14.7295 7.60714 14.7295 8.12488H11.917C11.917 8.64261 12.368 9.06238 12.8857 9.06238H12.8545C12.8545 9.58011 13.2743 9.99988 13.792 9.99988C13.792 10.5176 14.2118 10.9374 14.7295 10.9374H16.6045C17.1222 10.9374 17.542 10.5176 17.542 9.99988C18.0597 9.99988 18.4795 9.58011 18.4795 9.06238H18.4483C18.966 9.06238 19.417 8.64267 19.417 8.12488Z" fill="#FF9811"/>
</svg>
