<svg width="30" height="20" viewBox="0 0 30 20" fill="none" xmlns="http://www.w3.org/2000/svg">
<path d="M30 0.000244141H0V19.9998H30V0.000244141Z" fill="#F0F0F0"/>
<path d="M30 0.000244141H0V6.66675H30V0.000244141Z" fill="#D80027"/>
<path d="M30 13.3334H0V19.9999H30V13.3334Z" fill="#0052B4"/>
<path d="M17.6064 6.95638H15.8672L16.1571 4.78243L17.3165 3.91284L18.4759 4.78243V6.52155L17.6064 6.95638Z" fill="#338AF3"/>
<path d="M12.3891 6.95638H14.1282L13.8383 4.78243L12.6789 3.91284L11.5195 4.78243V6.52155L12.3891 6.95638Z" fill="#338AF3"/>
<path d="M16.1597 6.95662H13.8408V4.78268L15.0003 3.91309L16.1597 4.78268V6.95662Z" fill="#0052B4"/>
<path d="M11.5215 6.52185V11.3044C11.5215 12.4433 12.0716 13.456 12.92 14.0909L13.5287 13.9385L14.2968 14.7113C14.5239 14.758 14.7589 14.7827 14.9997 14.7827C15.2391 14.7827 15.4729 14.7584 15.6989 14.7121L16.5757 13.9821L17.0793 14.0895C17.9274 13.4547 18.4779 12.443 18.4779 11.3045V6.52191L11.5215 6.52185Z" fill="#F0F0F0"/>
<path d="M12.9118 6.52173H11.5205V7.91304H12.9118V6.52173Z" fill="#D80027"/>
<path d="M15.694 6.52173H14.3027V7.91304H15.694V6.52173Z" fill="#D80027"/>
<path d="M18.4772 6.52173H17.0859V7.91304H18.4772V6.52173Z" fill="#D80027"/>
<path d="M14.3034 7.91284H12.9121V9.30415H14.3034V7.91284Z" fill="#D80027"/>
<path d="M17.0856 7.91284H15.6943V9.30415H17.0856V7.91284Z" fill="#D80027"/>
<path d="M12.9118 9.30396H11.5205V10.6953H12.9118V9.30396Z" fill="#D80027"/>
<path d="M14.3034 10.6951H12.9121V12.0864H14.3034V10.6951Z" fill="#D80027"/>
<path d="M15.694 9.30396H14.3027V10.6953H15.694V9.30396Z" fill="#D80027"/>
<path d="M18.4772 9.30396H17.0859V10.6953H18.4772V9.30396Z" fill="#D80027"/>
<path d="M17.0856 10.6951H15.6943V12.0864H17.0856V10.6951Z" fill="#D80027"/>
<path d="M15.694 12.0868H14.3027V13.4781H15.694V12.0868Z" fill="#D80027"/>
<path d="M12.9118 12.0865H11.6104C11.7298 12.6037 11.9644 13.077 12.2863 13.4779H12.9118V12.0865Z" fill="#D80027"/>
<path d="M17.0859 13.4777H17.7115C18.0334 13.0768 18.2681 12.6036 18.3875 12.0864H17.0859V13.4777Z" fill="#D80027"/>
<path d="M12.9121 13.4778V14.0849C13.3168 14.3893 13.7896 14.6077 14.3034 14.7124V13.4778H12.9121Z" fill="#D80027"/>
<path d="M15.6943 13.4778V14.7124C16.2081 14.6078 16.681 14.3893 17.0856 14.0849V13.4778H15.6943Z" fill="#D80027"/>
</svg>
