<svg width="31" height="20" viewBox="0 0 31 20" fill="none" xmlns="http://www.w3.org/2000/svg">
<path d="M30.333 -0.00012207H0.333008V20.0001H30.333V-0.00012207Z" fill="#6DA544"/>
<path d="M15.333 4.47253L22.833 9.99886L15.333 15.5252L7.83301 9.99886L15.333 4.47253Z" fill="#FFDA44"/>
<path d="M15.3327 13.1575C17.0767 13.1575 18.4905 11.7437 18.4905 9.99965C18.4905 8.25562 17.0767 6.8418 15.3327 6.8418C13.5886 6.8418 12.1748 8.25562 12.1748 9.99965C12.1748 11.7437 13.5886 13.1575 15.3327 13.1575Z" fill="#F0F0F0"/>
<path d="M13.7537 9.80261C13.2046 9.80261 12.6746 9.88617 12.1758 10.0411C12.1979 11.7661 13.6024 13.1579 15.3326 13.1579C16.4025 13.1579 17.3474 12.6253 17.9186 11.8113C16.9415 10.5879 15.4377 9.80261 13.7537 9.80261Z" fill="#0052B4"/>
<path d="M18.432 10.6049C18.47 10.4089 18.4905 10.2068 18.4905 9.99983C18.4905 8.25579 17.0767 6.84192 15.3326 6.84192C14.0313 6.84192 12.9142 7.6293 12.4307 8.75342C12.858 8.66495 13.3005 8.61825 13.7537 8.61825C15.5879 8.61831 17.2471 9.38067 18.432 10.6049Z" fill="#0052B4"/>
</svg>
