<svg width="30" height="20" viewBox="0 0 30 20" fill="none" xmlns="http://www.w3.org/2000/svg">
<path d="M30 -0.00012207H0V20.0001H30V-0.00012207Z" fill="#D80027"/>
<path d="M10.4836 6.1073L11.3423 8.75029H14.1213L11.873 10.3838L12.7319 13.0269L10.4836 11.3933L8.23525 13.0269L9.094 10.3838L6.8457 8.75029H9.62475L10.4836 6.1073Z" fill="#FFDA44"/>
<path d="M15.8968 14.8975L15.0536 14.2849L14.2106 14.8974L14.5326 13.9064L13.6895 13.2938H14.7316L15.0536 12.3026L15.3758 13.2938H16.4179L15.5748 13.9063L15.8968 14.8975Z" fill="#FFDA44"/>
<path d="M18.0955 11.8712H17.0535L16.7314 12.8622L16.4094 11.8712L15.3672 11.8712L16.2104 11.2586L15.8883 10.2675L16.7314 10.8799L17.5745 10.2675L17.2525 11.2586L18.0955 11.8712Z" fill="#FFDA44"/>
<path d="M18.0955 8.12972L17.2525 8.74232L17.5745 9.73337L16.7314 9.12089L15.8883 9.73349L16.2104 8.74226L15.3672 8.12984L16.4095 8.12972L16.7314 7.13855L17.0535 8.12972H18.0955Z" fill="#FFDA44"/>
<path d="M15.8967 5.1015L15.5748 6.09267L16.4178 6.70515L15.3757 6.70521L15.0536 7.69644L14.7315 6.70515L13.6895 6.70527L14.5326 6.09261L14.2105 5.10144L15.0536 5.71404L15.8967 5.1015Z" fill="#FFDA44"/>
</svg>
