<svg width="30" height="20" viewBox="0 0 30 20" fill="none" xmlns="http://www.w3.org/2000/svg">
<path d="M30 -0.00012207H0V20.0001H30V-0.00012207Z" fill="white"/>
<path d="M18.652 9.9998C18.652 10.9129 17.0168 13.1954 14.9998 13.1954C12.9828 13.1954 11.3477 10.9128 11.3477 9.9998C11.3477 7.98277 12.9828 6.34766 14.9998 6.34766C17.0168 6.34766 18.652 7.98277 18.652 9.9998Z" fill="#D80027"/>
<path d="M18.652 9.99976C18.652 12.0168 17.0168 13.6519 14.9998 13.6519C12.9828 13.6519 11.3477 12.0168 11.3477 9.99976" fill="#0052B4"/>
<path d="M19.8424 12.2598L18.874 13.2283L19.5196 13.8739L20.488 12.9054L19.8424 12.2598Z" fill="black"/>
<path d="M18.2282 13.8734L17.2598 14.8418L17.9054 15.4874L18.8738 14.519L18.2282 13.8734Z" fill="black"/>
<path d="M21.779 14.1956L20.8105 15.1641L21.4561 15.8097L22.4246 14.8412L21.779 14.1956Z" fill="black"/>
<path d="M20.1657 15.8108L19.1973 16.7792L19.8429 17.4248L20.8113 16.4563L20.1657 15.8108Z" fill="black"/>
<path d="M20.8102 13.2287L19.8418 14.1971L20.4874 14.8427L21.4558 13.8743L20.8102 13.2287Z" fill="black"/>
<path d="M19.1969 14.8419L18.2285 15.8103L18.8741 16.4559L19.8425 15.4875L19.1969 14.8419Z" fill="black"/>
<path d="M18.2291 4.18893L20.8115 6.77136L21.4571 6.12577L18.8747 3.54334L18.2291 4.18893Z" fill="black"/>
<path d="M17.2601 5.15646L18.2285 6.12488L18.8741 5.47933L17.9056 4.51091L17.2601 5.15646Z" fill="black"/>
<path d="M18.8734 6.77181L19.8418 7.74023L20.4873 7.09469L19.5189 6.12626L18.8734 6.77181Z" fill="black"/>
<path d="M19.1956 3.22091L20.1641 4.18933L20.8097 3.54374L19.8412 2.57532L19.1956 3.22091Z" fill="black"/>
<path d="M20.8109 4.83419L21.7793 5.80261L22.4249 5.15702L21.4565 4.1886L20.8109 4.83419Z" fill="black"/>
<path d="M10.8031 16.7776L8.2207 14.1952L7.57512 14.8408L10.1575 17.4232L10.8031 16.7776Z" fill="black"/>
<path d="M11.7712 15.8101L10.8027 14.8417L10.1572 15.4872L11.1256 16.4556L11.7712 15.8101Z" fill="black"/>
<path d="M10.1579 14.1968L9.18945 13.2284L8.54387 13.874L9.51229 14.8424L10.1579 14.1968Z" fill="black"/>
<path d="M12.7406 14.8422L10.1582 12.2598L9.51262 12.9054L12.095 15.4878L12.7406 14.8422Z" fill="black"/>
<path d="M8.22128 5.80302L10.8037 3.22058L10.1581 2.57499L7.57569 5.15743L8.22128 5.80302Z" fill="black"/>
<path d="M9.18905 6.77176L11.7715 4.18933L11.1259 3.54374L8.54346 6.12618L9.18905 6.77176Z" fill="black"/>
<path d="M10.1578 7.74052L12.7402 5.15808L12.0947 4.51253L9.51225 7.09497L10.1578 7.74052Z" fill="black"/>
</svg>
