<svg width="10" height="17" viewBox="0 0 10 17" fill="none" xmlns="http://www.w3.org/2000/svg">
<g opacity="0.9" clip-path="url(#clip0_64_2281)">
<path d="M8.56445 1.01953V3.37891H7.1582C6.61654 3.37891 6.26497 3.4987 6.10352 3.73828C5.94206 3.97786 5.86133 4.28516 5.86133 4.66016V6.34766H8.4707L8.12695 8.98828H5.86133V15.7695H3.12695V8.98828H0.845703V6.34766H3.12695V4.41016C3.12695 3.83724 3.21029 3.33464 3.37695 2.90234C3.54362 2.47005 3.77539 2.10547 4.07227 1.80859C4.36914 1.51172 4.72591 1.28776 5.14258 1.13672C5.55924 0.985677 6.02279 0.910156 6.5332 0.910156C7.01237 0.910156 7.43945 0.923177 7.81445 0.949219C8.18945 0.975261 8.43945 0.998698 8.56445 1.01953Z" fill="#888888"/>
</g>
<defs>
<clipPath id="clip0_64_2281">
<rect width="9.41" height="16" fill="white" transform="matrix(1 0 0 -1 0 16.7695)"/>
</clipPath>
</defs>
</svg>
