<svg width="21" height="17" viewBox="0 0 21 17" fill="none" xmlns="http://www.w3.org/2000/svg">
<g opacity="0.9" clip-path="url(#clip0_64_2287)">
<path d="M13.0919 9.06641C13.0919 10.0039 12.9409 10.8633 12.639 11.6445C12.3371 12.4258 11.9128 13.0977 11.3662 13.6602C10.8196 14.2227 10.161 14.6628 9.39058 14.9805C8.62013 15.2982 7.76117 15.457 6.81371 15.457C5.9079 15.457 5.05675 15.2852 4.26027 14.9414C3.46378 14.5977 2.77141 14.1315 2.18315 13.543C1.5949 12.9544 1.12898 12.2617 0.785394 11.4648C0.441811 10.668 0.27002 9.81641 0.27002 8.91016C0.27002 8.00391 0.441811 7.15495 0.785394 6.36328C1.12898 5.57161 1.5949 4.87891 2.18315 4.28516C2.77141 3.69141 3.46378 3.22266 4.26027 2.87891C5.05675 2.53516 5.9079 2.36328 6.81371 2.36328C7.6987 2.36328 8.5082 2.51693 9.24222 2.82422C9.97624 3.13151 10.6244 3.55078 11.1866 4.08203L9.42182 5.78516C9.18235 5.55599 8.84658 5.33203 8.4145 5.11328C7.98242 4.89453 7.44882 4.78516 6.81371 4.78516C6.25149 4.78516 5.7257 4.89193 5.23635 5.10547C4.74701 5.31901 4.31753 5.61328 3.94792 5.98828C3.57831 6.36328 3.28678 6.80078 3.07334 7.30078C2.85991 7.80078 2.75319 8.33724 2.75319 8.91016C2.75319 9.48307 2.85991 10.0195 3.07334 10.5195C3.28678 11.0195 3.57831 11.457 3.94792 11.832C4.31753 12.207 4.74701 12.5039 5.23635 12.7227C5.7257 12.9414 6.25149 13.0508 6.81371 13.0508C7.45923 13.0508 8.00844 12.9466 8.46135 12.7383C8.91425 12.5299 9.28647 12.2799 9.57799 11.9883C9.86952 11.6966 10.0908 11.3893 10.2417 11.0664C10.3927 10.7435 10.489 10.4622 10.5307 10.2227H6.81371V7.97266H12.9826C13.0138 8.13932 13.0399 8.30859 13.0607 8.48047C13.0815 8.65234 13.0919 8.84766 13.0919 9.06641ZM20.8381 7.97266V9.84766H18.9641V11.7227H17.09V9.84766H15.2315V7.97266H17.09V6.11328H18.9641V7.97266H20.8381Z" fill="#888888"/>
</g>
<defs>
<clipPath id="clip0_64_2287">
<rect width="20.57" height="16" fill="white" transform="matrix(1 0 0 -1 0.27002 16.7695)"/>
</clipPath>
</defs>
</svg>
