<svg width="31" height="20" viewBox="0 0 31 20" fill="none" xmlns="http://www.w3.org/2000/svg">
<path d="M30.333 -0.000244141H0.333008V19.9993H30.333V-0.000244141Z" fill="#F0F0F0"/>
<path d="M30.333 -0.000244141H0.333008V6.66626H30.333V-0.000244141Z" fill="#338AF3"/>
<path d="M30.333 13.3337H0.333008V20.0002H30.333V13.3337Z" fill="#338AF3"/>
<path d="M17.7237 9.99898L16.7466 10.4586L17.2669 11.4048L16.206 11.2018L16.0715 12.2736L15.3326 11.4853L14.5936 12.2736L14.4592 11.2018L13.3982 11.4048L13.9185 10.4585L12.9414 9.99898L13.9185 9.53937L13.3982 8.59319L14.4591 8.7961L14.5936 7.72437L15.3326 8.51263L16.0715 7.72437L16.206 8.7961L17.2669 8.59319L16.7467 9.53942L17.7237 9.99898Z" fill="#FFDA44"/>
</svg>
