<svg width="31" height="20" viewBox="0 0 31 20" fill="none" xmlns="http://www.w3.org/2000/svg">
<path d="M30.333 -0.00012207H0.333008V19.9994H30.333V-0.00012207Z" fill="#6DA544"/>
<path d="M12.9813 10.0009L0.333008 18.4328V1.56824L12.9813 10.0009Z" fill="black"/>
<path d="M30.3329 1.56824V18.4328L17.6846 10.0009L30.3329 1.56824Z" fill="black"/>
<path d="M30.333 1.56773L17.6847 10.0004L30.333 18.4323V20.0001H27.9819L15.333 11.5675L2.68408 20.0001H0.333008V18.4323L12.9813 10.0004L0.333008 1.56773V-0.00012207H2.68408L15.333 8.43251L27.9819 -0.00012207H30.333V1.56773Z" fill="#0052B4"/>
<path d="M30.333 1.56773L17.6847 10.0004L30.333 18.4323V20.0001H27.9819L15.333 11.5675L2.68408 20.0001H0.333008V18.4323L12.9813 10.0004L0.333008 1.56773V-0.00012207H2.68408L15.333 8.43251L27.9819 -0.00012207H30.333V1.56773Z" fill="#FFDA44"/>
</svg>
