<svg width="468" height="488" viewBox="0 0 468 488" fill="none" xmlns="http://www.w3.org/2000/svg">
<path d="M445.375 104.332C440.901 104.338 436.613 106.118 433.449 109.281C430.286 112.445 428.506 116.733 428.5 121.207C428.5 134.067 444.285 145.887 444.96 146.379C445.079 146.47 445.225 146.52 445.375 146.52C445.525 146.52 445.671 146.47 445.79 146.379C446.465 145.887 462.25 134.067 462.25 121.207C462.244 116.733 460.464 112.445 457.301 109.281C454.137 106.118 449.849 104.338 445.375 104.332Z" fill="#045C40"/>
<path d="M440.444 127.805C441.904 128.78 443.62 129.301 445.375 129.301C447.728 129.299 449.985 128.363 451.649 126.699C453.312 125.035 454.248 122.779 454.25 120.426C454.25 118.67 453.729 116.955 452.754 115.495C451.779 114.036 450.393 112.898 448.771 112.226C447.15 111.555 445.365 111.379 443.644 111.721C441.922 112.064 440.341 112.909 439.099 114.15C437.858 115.391 437.013 116.973 436.671 118.694C436.328 120.416 436.504 122.2 437.176 123.822C437.847 125.444 438.985 126.83 440.444 127.805Z" fill="white"/>
<path d="M306.375 1.33203C301.901 1.33796 297.613 3.11776 294.449 6.28115C291.286 9.44454 289.506 13.7333 289.5 18.207C289.5 31.0672 305.285 42.8867 305.96 43.3789C306.079 43.4701 306.225 43.5195 306.375 43.5195C306.525 43.5195 306.671 43.4701 306.79 43.3789C307.465 42.8867 323.25 31.0672 323.25 18.207C323.244 13.7333 321.464 9.44454 318.301 6.28114C315.137 3.11775 310.849 1.33795 306.375 1.33203Z" fill="#045C40"/>
<path d="M301.444 24.8051C302.904 25.7803 304.62 26.3008 306.375 26.3008C308.728 26.2989 310.985 25.3633 312.649 23.6993C314.312 22.0353 315.248 19.779 315.25 17.4258C315.25 15.6705 314.729 13.9546 313.754 12.4951C312.779 11.0356 311.393 9.89808 309.771 9.22635C308.15 8.55463 306.365 8.37887 304.644 8.72132C302.922 9.06376 301.341 9.90902 300.099 11.1502C298.858 12.3914 298.013 13.9728 297.671 15.6944C297.328 17.4159 297.504 19.2004 298.176 20.8221C298.847 22.4438 299.985 23.8299 301.444 24.8051Z" fill="white"/>
<path d="M239.375 443.332C234.901 443.338 230.613 445.118 227.449 448.281C224.286 451.445 222.506 455.733 222.5 460.207C222.5 473.067 238.285 484.887 238.96 485.379C239.079 485.47 239.225 485.52 239.375 485.52C239.525 485.52 239.671 485.47 239.79 485.379C240.465 484.887 256.25 473.067 256.25 460.207C256.244 455.733 254.464 451.445 251.301 448.281C248.137 445.118 243.849 443.338 239.375 443.332Z" fill="#045C40"/>
<path d="M234.444 466.805C235.904 467.78 237.62 468.301 239.375 468.301C241.728 468.299 243.985 467.363 245.649 465.699C247.312 464.035 248.248 461.779 248.25 459.426C248.25 457.67 247.729 455.955 246.754 454.495C245.779 453.036 244.393 451.898 242.771 451.226C241.15 450.555 239.365 450.379 237.644 450.721C235.922 451.064 234.341 451.909 233.099 453.15C231.858 454.391 231.013 455.973 230.671 457.694C230.328 459.416 230.504 461.2 231.176 462.822C231.847 464.444 232.985 465.83 234.444 466.805Z" fill="white"/>
<path d="M23.375 48.332C18.9013 48.338 14.6125 50.1178 11.4491 53.2811C8.28572 56.4445 6.50593 60.7333 6.5 65.207C6.5 78.0672 22.2852 89.8867 22.9602 90.3789C23.0792 90.4701 23.225 90.5195 23.375 90.5195C23.525 90.5195 23.6708 90.4701 23.7898 90.3789C24.4648 89.8867 40.25 78.0672 40.25 65.207C40.2441 60.7333 38.4643 56.4445 35.3009 53.2811C32.1375 50.1177 27.8487 48.338 23.375 48.332Z" fill="#045C40"/>
<path d="M18.4443 71.8051C19.9038 72.7803 21.6197 73.3008 23.375 73.3008C25.7282 73.2989 27.9845 72.3633 29.6485 70.6993C31.3125 69.0353 32.2481 66.779 32.25 64.4258C32.25 62.6705 31.7295 60.9546 30.7543 59.4951C29.7791 58.0356 28.393 56.8981 26.7713 56.2264C25.1496 55.5546 23.3652 55.3789 21.6436 55.7213C19.922 56.0638 18.3406 56.909 17.0994 58.1502C15.8582 59.3914 15.013 60.9728 14.6705 62.6944C14.3281 64.4159 14.5038 66.2004 15.1756 67.8221C15.8473 69.4438 16.9848 70.8299 18.4443 71.8051Z" fill="white"/>
</svg>
