<svg width="31" height="20" viewBox="0 0 31 20" fill="none" xmlns="http://www.w3.org/2000/svg">
<path d="M30.667 0.000244141H0.666992V19.9998H30.667V0.000244141Z" fill="#F0F0F0"/>
<path d="M7.34809 10.0007L0.666992 3.31665V16.686L7.34809 10.0007Z" fill="black"/>
<path d="M10.1118 10.0002L0.666992 0.549072V3.31622L7.34809 10.0003L0.666992 16.6856V19.4475L10.1118 10.0002Z" fill="#FFDA44"/>
<path d="M30.54 11.9565C30.5434 11.9308 30.5871 11.9051 30.667 11.8793V10V8.04353H30.54H13.7101L5.6668 0.000244141H0.666992V0.548857L10.1118 10L0.666992 19.4473V19.9998H5.6668L13.7101 11.9565H30.54Z" fill="#6DA544"/>
<path d="M30.1501 13.9124H14.5204L8.43359 19.9991H30.6669V13.9124H30.1501Z" fill="#0052B4"/>
<path d="M30.1501 6.08696H30.6669V0.000244141H8.43359L14.5204 6.08696H30.1501Z" fill="#D80027"/>
</svg>
