<svg width="31" height="20" viewBox="0 0 31 20" fill="none" xmlns="http://www.w3.org/2000/svg">
<path d="M30.667 -0.00012207H0.666992V20.0001H30.667V-0.00012207Z" fill="#F0F0F0"/>
<path d="M30.667 -0.00012207H0.666992V5.30724H30.667V-0.00012207Z" fill="black"/>
<path d="M30.667 14.6932H0.666992V20H30.667V14.6932Z" fill="#496E2D"/>
<path d="M30.667 6.6366H0.666992V13.3631H30.667V6.6366Z" fill="#A2001D"/>
<path d="M19.6082 3.19169L18.1092 2.49976L15.6669 8.02995L13.2246 2.49976L11.7256 3.19169L14.7578 9.99976L11.7256 16.8079L13.2246 17.4998L15.6669 11.9696L18.1092 17.4998L19.6082 16.8079L16.576 9.99976L19.6082 3.19169Z" fill="#F0F0F0"/>
<path d="M16.6847 3.84361C16.1044 3.20986 15.6666 2.84558 15.6666 2.84558C15.6666 2.84558 15.2288 3.2098 14.6484 3.84355V16.1557C15.2288 16.7894 15.6666 17.1538 15.6666 17.1538C15.6666 17.1538 16.1044 16.7895 16.6847 16.1557V3.84361Z" fill="#F0F0F0"/>
<path d="M12.916 6.20601V13.796C13.5292 14.8824 14.2797 15.773 14.8421 16.3634V3.63855C14.2797 4.22894 13.5291 5.11951 12.916 6.20601Z" fill="#A2001D"/>
<path d="M18.4193 6.20601C17.8061 5.11951 17.0555 4.22894 16.4932 3.63855V16.3635C17.0556 15.773 17.8061 14.8825 18.4193 13.796V6.20601Z" fill="#A2001D"/>
<path d="M18.4189 6.20471V13.7947C19.0397 12.6946 19.5196 11.3939 19.5196 9.99971C19.5196 8.60553 19.0397 7.30481 18.4189 6.20471Z" fill="black"/>
<path d="M12.9151 6.20471V13.7947C12.2943 12.6946 11.8145 11.3939 11.8145 9.99971C11.8145 8.60553 12.2943 7.30481 12.9151 6.20471Z" fill="black"/>
</svg>
