<svg width="31" height="20" viewBox="0 0 31 20" fill="none" xmlns="http://www.w3.org/2000/svg">
<path d="M30.667 -0.00012207H0.666992V19.9994H30.667V-0.00012207Z" fill="#0052B4"/>
<path d="M30.6666 -0.00012207H20.0146V20.0001H30.6666V-0.00012207Z" fill="#A2001D"/>
<path d="M11.3189 -0.00012207H0.666992V20.0001H11.3189V-0.00012207Z" fill="#A2001D"/>
<path d="M8.16641 10.6522H7.29688V14.1303H8.16641V10.6522Z" fill="#FFDA44"/>
<path d="M4.68789 10.6522H3.81836V14.1303H4.68789V10.6522Z" fill="#FFDA44"/>
<path d="M5.99258 12.8249C6.47281 12.8249 6.86211 12.4356 6.86211 11.9553C6.86211 11.4751 6.47281 11.0858 5.99258 11.0858C5.51235 11.0858 5.12305 11.4751 5.12305 11.9553C5.12305 12.4356 5.51235 12.8249 5.99258 12.8249Z" fill="#FFDA44"/>
<path d="M5.99342 9.34804C6.23356 9.34804 6.42824 9.15336 6.42824 8.91322C6.42824 8.67307 6.23356 8.47839 5.99342 8.47839C5.75327 8.47839 5.55859 8.67307 5.55859 8.91322C5.55859 9.15336 5.75327 9.34804 5.99342 9.34804Z" fill="#FFDA44"/>
<path d="M6.86223 13.2596H5.12305V14.1292H6.86223V13.2596Z" fill="#FFDA44"/>
<path d="M6.86223 9.78308H5.12305V10.6526H6.86223V9.78308Z" fill="#FFDA44"/>
<path d="M5.99283 5.86902L6.30074 6.81666H7.29719L6.49111 7.40236L6.79885 8.34999L5.99283 7.76429L5.18682 8.34999L5.49449 7.40236L4.68848 6.81666H5.68486L5.99283 5.86902Z" fill="#FFDA44"/>
</svg>
