<svg width="31" height="20" viewBox="0 0 31 20" fill="none" xmlns="http://www.w3.org/2000/svg">
<path d="M30.667 -0.00012207H0.666992V20.0001H30.667V-0.00012207Z" fill="#F0F0F0"/>
<path d="M30.667 2.49976H0.666992V4.99954H30.667V2.49976Z" fill="#D80027"/>
<path d="M30.667 7.49988H0.666992V9.99966H30.667V7.49988Z" fill="#D80027"/>
<path d="M30.667 12.4998H0.666992V14.9995H30.667V12.4998Z" fill="#D80027"/>
<path d="M30.667 17.4996H0.666992V19.9994H30.667V17.4996Z" fill="#D80027"/>
<path d="M15.667 -0.00012207H0.666992V10.7692H15.667V-0.00012207Z" fill="#2E52B2"/>
<path d="M6.51518 4.41003L6.27359 5.15324H5.49219L6.12447 5.61232L5.88289 6.35546L6.51518 5.89638L7.14705 6.35546L6.90553 5.61232L7.53781 5.15324H6.75635L6.51518 4.41003Z" fill="#F0F0F0"/>
<path d="M6.75635 7.83482L6.51518 7.09167L6.27359 7.83482H5.49219L6.12447 8.29396L5.88289 9.0371L6.51518 8.57796L7.14705 9.0371L6.90553 8.29396L7.53781 7.83482H6.75635Z" fill="#F0F0F0"/>
<path d="M3.45465 7.83482L3.21342 7.09167L2.97184 7.83482H2.19043L2.82271 8.29396L2.58113 9.0371L3.21342 8.57796L3.84535 9.0371L3.60383 8.29396L4.236 7.83482H3.45465Z" fill="#F0F0F0"/>
<path d="M3.21342 4.41003L2.97184 5.15324H2.19043L2.82271 5.61232L2.58113 6.35546L3.21342 5.89638L3.84535 6.35546L3.60383 5.61232L4.236 5.15324H3.45465L3.21342 4.41003Z" fill="#F0F0F0"/>
<path d="M6.51615 1.72839L6.27457 2.47166H5.49316L6.12545 2.9308L5.88387 3.67394L6.51615 3.2148L7.14803 3.67394L6.9065 2.9308L7.53879 2.47166H6.75732L6.51615 1.72839Z" fill="#F0F0F0"/>
<path d="M3.21342 1.72839L2.97184 2.47166H2.19043L2.82271 2.9308L2.58113 3.67394L3.21342 3.2148L3.84535 3.67394L3.60383 2.9308L4.236 2.47166H3.45465L3.21342 1.72839Z" fill="#F0F0F0"/>
<path d="M9.81785 4.41003L9.57633 5.15324H8.79492L9.42715 5.61232L9.18568 6.35546L9.81785 5.89638L10.4498 6.35546L10.2083 5.61232L10.8405 5.15324H10.0591L9.81785 4.41003Z" fill="#F0F0F0"/>
<path d="M10.0591 7.83482L9.81785 7.09167L9.57633 7.83482H8.79492L9.42715 8.29396L9.18568 9.0371L9.81785 8.57796L10.4498 9.0371L10.2083 8.29396L10.8405 7.83482H10.0591Z" fill="#F0F0F0"/>
<path d="M13.3618 7.83482L13.1206 7.09167L12.879 7.83482H12.0977L12.7298 8.29396L12.4883 9.0371L13.1206 8.57796L13.7525 9.0371L13.5109 8.29396L14.1432 7.83482H13.3618Z" fill="#F0F0F0"/>
<path d="M13.1206 4.41003L12.879 5.15324H12.0977L12.7298 5.61232L12.4883 6.35546L13.1206 5.89638L13.7525 6.35546L13.5109 5.61232L14.1432 5.15324H13.3618L13.1206 4.41003Z" fill="#F0F0F0"/>
<path d="M9.81785 1.72839L9.57633 2.47166H8.79492L9.42715 2.9308L9.18568 3.67394L9.81785 3.2148L10.4498 3.67394L10.2083 2.9308L10.8405 2.47166H10.0591L9.81785 1.72839Z" fill="#F0F0F0"/>
<path d="M13.1206 1.72839L12.879 2.47166H12.0977L12.7298 2.9308L12.4883 3.67394L13.1206 3.2148L13.7525 3.67394L13.5109 2.9308L14.1432 2.47166H13.3618L13.1206 1.72839Z" fill="#F0F0F0"/>
</svg>
