<svg width="31" height="20" viewBox="0 0 31 20" fill="none" xmlns="http://www.w3.org/2000/svg">
<path d="M30.333 0.000244141H0.333008V19.9998H30.333V0.000244141Z" fill="#F0F0F0"/>
<path d="M30.333 0.000244141H0.333008V2.85739H30.333V0.000244141Z" fill="#338AF3"/>
<path d="M30.333 5.71509H0.333008V8.57224H30.333V5.71509Z" fill="#338AF3"/>
<path d="M30.333 11.4299H0.333008V14.2871H30.333V11.4299Z" fill="#338AF3"/>
<path d="M30.333 17.1428H0.333008V20H30.333V17.1428Z" fill="#338AF3"/>
<path d="M15.333 0.000244141H0.333008V11.429H15.333V0.000244141Z" fill="#F0F0F0"/>
<path d="M11.583 5.71428L10.0507 6.43504L10.8666 7.91904L9.20275 7.6007L8.99193 9.28158L7.83301 8.04537L6.67402 9.28158L6.46326 7.6007L4.79937 7.91898L5.61529 6.43504L4.08301 5.71428L5.61529 4.99352L4.79937 3.50957L6.4632 3.82785L6.67408 2.14697L7.83301 3.38324L8.99199 2.14697L9.20275 3.82785L10.8667 3.50957L10.0507 4.99357L11.583 5.71428Z" fill="#FFDA44"/>
</svg>
