<svg width="14" height="15" viewBox="0 0 14 15" fill="none" xmlns="http://www.w3.org/2000/svg">
<path d="M7 6.03711C7.47396 6.03711 7.88411 6.21029 8.23047 6.55664C8.57682 6.90299 8.75 7.31315 8.75 7.78711C8.75 8.27018 8.5791 8.68262 8.2373 9.02441C7.89551 9.36621 7.48307 9.53711 7 9.53711C6.52604 9.53711 6.11589 9.36621 5.76953 9.02441C5.42318 8.68262 5.25 8.27018 5.25 7.78711C5.25 7.31315 5.4209 6.90299 5.7627 6.55664C6.10449 6.21029 6.51693 6.03711 7 6.03711ZM7 10.7129C7.40104 10.7129 7.7793 10.6377 8.13477 10.4873C8.49023 10.3369 8.80013 10.1296 9.06445 9.86523C9.32878 9.60091 9.53841 9.29102 9.69336 8.93555C9.84831 8.58008 9.92578 8.19727 9.92578 7.78711C9.92578 7.38607 9.84831 7.00781 9.69336 6.65234C9.53841 6.29688 9.32878 5.98698 9.06445 5.72266C8.80013 5.45833 8.49023 5.2487 8.13477 5.09375C7.7793 4.9388 7.40104 4.86133 7 4.86133C6.59896 4.86133 6.2207 4.9388 5.86523 5.09375C5.50977 5.2487 5.19987 5.45833 4.93555 5.72266C4.67122 5.98698 4.46159 6.29688 4.30664 6.65234C4.15169 7.00781 4.07422 7.38607 4.07422 7.78711C4.07422 8.19727 4.15169 8.58008 4.30664 8.93555C4.46159 9.29102 4.67122 9.60091 4.93555 9.86523C5.19987 10.1296 5.50977 10.3369 5.86523 10.4873C6.2207 10.6377 6.59896 10.7129 7 10.7129ZM7 3.41211C7.72917 3.41211 8.42643 3.51921 9.0918 3.7334C9.75716 3.94759 10.3701 4.24837 10.9307 4.63574C11.4912 5.02311 11.9834 5.48568 12.4072 6.02344C12.8311 6.5612 13.1706 7.14909 13.4258 7.78711C13.1706 8.43424 12.8311 9.02441 12.4072 9.55762C11.9834 10.0908 11.4912 10.5511 10.9307 10.9385C10.3701 11.3258 9.75716 11.6266 9.0918 11.8408C8.42643 12.055 7.72917 12.1621 7 12.1621C6.27083 12.1621 5.57357 12.055 4.9082 11.8408C4.24284 11.6266 3.62988 11.3258 3.06934 10.9385C2.50879 10.5511 2.0166 10.0908 1.59277 9.55762C1.16895 9.02441 0.829427 8.43424 0.574219 7.78711C0.829427 7.14909 1.16895 6.5612 1.59277 6.02344C2.0166 5.48568 2.50879 5.02311 3.06934 4.63574C3.62988 4.24837 4.24284 3.94759 4.9082 3.7334C5.57357 3.51921 6.27083 3.41211 7 3.41211Z" fill="#666666"/>
</svg>
