<svg width="43" height="20" viewBox="0 0 43 20" fill="none" xmlns="http://www.w3.org/2000/svg">
<g opacity="0.9" clip-path="url(#clip0_64_2289)">
<path d="M15.8501 8.23985C15.8501 7.41706 16.0221 6.6776 16.3661 6.02146C16.7101 5.36532 17.1687 4.80551 17.7421 4.34205C18.3154 3.87858 18.9643 3.52447 19.6888 3.27972C20.4132 3.03497 21.1612 2.9126 21.9325 2.9126C22.631 2.9126 23.3033 3.02976 23.9496 3.2641C24.5959 3.49844 25.1666 3.82651 25.6618 4.24831C26.1569 4.67012 26.5504 5.18306 26.8423 5.78712C27.1342 6.39119 27.2801 7.06296 27.2801 7.80242C27.2801 8.4898 27.1915 9.1824 27.0143 9.8802C26.8371 10.578 26.5608 11.2055 26.1856 11.7627C25.8103 12.3199 25.3334 12.7756 24.7549 13.1297C24.1763 13.4838 23.4909 13.6608 22.6987 13.6608C22.3234 13.6608 21.9325 13.5671 21.526 13.3796C21.1195 13.1922 20.8224 12.9266 20.6347 12.5829C20.3012 13.9264 20.051 14.8638 19.8842 15.3949C19.7174 15.9261 19.2588 16.702 18.5082 17.7227L18.3831 17.7695L18.305 17.6758C18.2841 17.3946 18.2581 17.116 18.2268 16.84C18.1955 16.564 18.1799 16.2854 18.1799 16.0042C18.1799 15.5459 18.2242 15.0486 18.3128 14.5123C18.4014 13.9759 18.5108 13.4291 18.6411 12.8719C18.7714 12.3147 18.9096 11.7705 19.0555 11.2394C19.2014 10.7082 19.3265 10.2239 19.4308 9.78647C19.3161 9.55734 19.2379 9.30998 19.1962 9.0444C19.1545 8.77882 19.1337 8.52105 19.1337 8.27109C19.1337 7.82325 19.2822 7.3702 19.5793 6.91194C19.8764 6.45368 20.2751 6.22455 20.7755 6.22455C21.1507 6.22455 21.4374 6.34953 21.6355 6.59949C21.8335 6.84945 21.9325 7.15148 21.9325 7.50559C21.9325 8.08883 21.8022 8.65644 21.5416 9.20844C21.281 9.76043 21.1507 10.3176 21.1507 10.88C21.1507 11.2654 21.2863 11.5778 21.5573 11.8174C21.8283 12.0569 22.1515 12.1767 22.5267 12.1767C23.0375 12.1767 23.4649 12.0153 23.8089 11.6924C24.1529 11.3695 24.4291 10.9738 24.6376 10.5051C24.8461 10.0364 24.9946 9.53911 25.0832 9.01316C25.1718 8.4872 25.2161 8.02634 25.2161 7.63057C25.2161 7.10982 25.1275 6.64636 24.9503 6.24017C24.7731 5.83399 24.5255 5.4929 24.2076 5.2169C23.8897 4.94091 23.517 4.73001 23.0896 4.5842C22.6622 4.43839 22.1931 4.36548 21.6824 4.36548C21.0986 4.36548 20.5514 4.46703 20.0406 4.67012C19.5298 4.87321 19.0868 5.15441 18.7115 5.51373C18.3362 5.87305 18.0418 6.30527 17.8281 6.81039C17.6144 7.31552 17.5075 7.86491 17.5075 8.45856C17.5075 9.03138 17.6248 9.47662 17.8593 9.79428C18.0939 10.1119 18.2112 10.3385 18.2112 10.4739C18.2112 10.5884 18.1695 10.7941 18.0861 11.0909C18.0027 11.3878 17.888 11.5362 17.7421 11.5362C17.7212 11.5362 17.6978 11.531 17.6717 11.5206C17.6456 11.5101 17.617 11.5049 17.5857 11.5049C16.9498 11.3071 16.5016 10.8592 16.241 10.1614C15.9804 9.4636 15.8501 8.82308 15.8501 8.23985Z" fill="#888888"/>
</g>
<defs>
<clipPath id="clip0_64_2289">
<rect width="11.43" height="16" fill="white" transform="matrix(1 0 0 -1 15.8501 18.7695)"/>
</clipPath>
</defs>
</svg>
