<svg width="44" height="20" viewBox="0 0 44 20" fill="none" xmlns="http://www.w3.org/2000/svg">
<g opacity="0.9" clip-path="url(#clip0_64_2292)">
<path d="M18.3771 8.48828V17.3477H15.4418V8.48828H18.3771ZM18.5645 5.75391C18.5749 6.18099 18.4292 6.54297 18.1273 6.83984C17.8254 7.13672 17.4195 7.28516 16.9094 7.28516H16.8938C16.3942 7.28516 15.9987 7.13672 15.7072 6.83984C15.4157 6.54297 15.27 6.18099 15.27 5.75391C15.27 5.32682 15.421 4.96745 15.7228 4.67578C16.0247 4.38411 16.4254 4.23828 16.9251 4.23828C17.4351 4.23828 17.8359 4.38411 18.1273 4.67578C18.4188 4.96745 18.5645 5.32682 18.5645 5.75391ZM28.9788 12.2695V17.3477H26.0434V12.6133C26.0434 12.0195 25.9263 11.5378 25.6921 11.168C25.4579 10.7982 25.0754 10.6133 24.5445 10.6133C24.1386 10.6133 23.8133 10.7253 23.5687 10.9492C23.324 11.1732 23.1497 11.4154 23.0456 11.6758C23.004 11.7799 22.9753 11.8945 22.9597 12.0195C22.9441 12.1445 22.9363 12.2747 22.9363 12.4102V17.3477H20.0009C20.0114 15.3372 20.0166 13.7461 20.0166 12.5742C20.0166 11.4023 20.0166 10.5143 20.0166 9.91016C20.0166 9.30599 20.014 8.91797 20.0088 8.74609C20.0035 8.57422 20.0009 8.48828 20.0009 8.48828H22.9363V9.78516H22.9207C23.1185 9.47266 23.4151 9.14453 23.8107 8.80078C24.2062 8.45703 24.7995 8.28516 25.5906 8.28516C26.0798 8.28516 26.53 8.36589 26.9412 8.52734C27.3524 8.6888 27.7089 8.93359 28.0107 9.26172C28.3126 9.58984 28.5494 10.0039 28.7211 10.5039C28.8929 11.0039 28.9788 11.5924 28.9788 12.2695Z" fill="#888888"/>
</g>
<defs>
<clipPath id="clip0_64_2292">
<rect width="13.71" height="16" fill="white" transform="matrix(1 0 0 -1 15.27 18.7695)"/>
</clipPath>
</defs>
</svg>
