<svg width="46" height="20" viewBox="0 0 46 20" fill="none" xmlns="http://www.w3.org/2000/svg">
<g opacity="0.9" clip-path="url(#clip0_64_2283)">
<path d="M29.8789 6.55078C29.681 6.84245 29.4596 7.11328 29.2148 7.36328C28.9701 7.61328 28.707 7.84245 28.4258 8.05078C28.4362 8.11328 28.4414 8.17578 28.4414 8.23828C28.4414 8.30078 28.4414 8.36328 28.4414 8.42578C28.4414 9.3737 28.2617 10.3346 27.9023 11.3086C27.543 12.2826 27.0169 13.1628 26.3242 13.9492C25.6315 14.7357 24.7747 15.3789 23.7539 15.8789C22.7331 16.3789 21.5612 16.6289 20.2383 16.6289C19.4154 16.6289 18.6289 16.5143 17.8789 16.2852C17.1289 16.056 16.4362 15.7383 15.8008 15.332C15.9154 15.3424 16.0299 15.3503 16.1445 15.3555C16.2591 15.3607 16.3789 15.3633 16.5039 15.3633C17.1706 15.3633 17.8086 15.2565 18.418 15.043C19.0273 14.8294 19.582 14.5247 20.082 14.1289C19.4466 14.1185 18.8841 13.9258 18.3945 13.5508C17.9049 13.1758 17.5664 12.7018 17.3789 12.1289C17.4727 12.1497 17.5638 12.1628 17.6523 12.168C17.7409 12.1732 17.832 12.1758 17.9258 12.1758C18.0612 12.1758 18.1914 12.168 18.3164 12.1523C18.4414 12.1367 18.5664 12.1133 18.6914 12.082C18.0247 11.9466 17.4727 11.6159 17.0352 11.0898C16.5977 10.5638 16.3789 9.95182 16.3789 9.25391V9.22266C16.5664 9.32682 16.7695 9.41016 16.9883 9.47266C17.207 9.53516 17.4362 9.57161 17.6758 9.58203C17.2904 9.32161 16.9805 8.98047 16.7461 8.55859C16.5117 8.13672 16.3945 7.67578 16.3945 7.17578C16.3945 6.91536 16.4284 6.66276 16.4961 6.41797C16.5638 6.17318 16.6602 5.94141 16.7852 5.72266C17.1393 6.16016 17.5352 6.55859 17.9727 6.91797C18.4102 7.27734 18.8815 7.58724 19.3867 7.84766C19.8919 8.10807 20.4258 8.3138 20.9883 8.46484C21.5508 8.61589 22.1341 8.70703 22.7383 8.73828C22.707 8.63411 22.6862 8.52734 22.6758 8.41797C22.6654 8.30859 22.6602 8.19661 22.6602 8.08203C22.6602 7.29036 22.9414 6.61068 23.5039 6.04297C24.0664 5.47526 24.7487 5.19141 25.5508 5.19141C25.957 5.19141 26.3424 5.27474 26.707 5.44141C27.0716 5.60807 27.3841 5.83203 27.6445 6.11328C27.9779 6.05078 28.2982 5.95964 28.6055 5.83984C28.9128 5.72005 29.207 5.57682 29.4883 5.41016C29.3737 5.74349 29.207 6.04818 28.9883 6.32422C28.7695 6.60026 28.5091 6.82682 28.207 7.00391C28.4987 6.97266 28.7852 6.91797 29.0664 6.83984C29.3477 6.76172 29.6185 6.66536 29.8789 6.55078Z" fill="#888888"/>
</g>
<defs>
<clipPath id="clip0_64_2283">
<rect width="14.86" height="16" fill="white" transform="matrix(1 0 0 -1 15.4102 18.7695)"/>
</clipPath>
</defs>
</svg>
