<svg width="23" height="20" viewBox="0 0 23 20" fill="none" xmlns="http://www.w3.org/2000/svg">
<g clip-path="url(#clip0_13167_3006)">
<path d="M14.955 3.01953V5.37891H13.5487C13.007 5.37891 12.6555 5.4987 12.494 5.73828C12.3326 5.97786 12.2518 6.28516 12.2518 6.66016V8.34766H14.8612L14.5175 10.9883H12.2518V17.7695H9.51746V10.9883H7.23621V8.34766H9.51746V6.41016C9.51746 5.83724 9.60079 5.33724 9.76746 4.91016C9.93412 4.47266 10.1659 4.10547 10.4628 3.80859C10.7596 3.51172 11.1164 3.29036 11.5331 3.14453C11.9497 2.98828 12.4133 2.91016 12.9237 2.91016C13.4029 2.91016 13.83 2.92318 14.205 2.94922C14.58 2.97526 14.83 2.9987 14.955 3.01953Z" fill="white" fill-opacity="0.8"/>
</g>
<defs>
<clipPath id="clip0_13167_3006">
<rect width="9.41" height="16" fill="white" transform="matrix(1 0 0 -1 6.39062 18.7695)"/>
</clipPath>
</defs>
</svg>
