<svg width="40" height="20" viewBox="0 0 40 20" fill="none" xmlns="http://www.w3.org/2000/svg">
<g opacity="0.9" clip-path="url(#clip0_64_2280)">
<path d="M23.5645 3.01953V5.37891H22.1582C21.6165 5.37891 21.265 5.4987 21.1035 5.73828C20.9421 5.97786 20.8613 6.28516 20.8613 6.66016V8.34766H23.4707L23.127 10.9883H20.8613V17.7695H18.127V10.9883H15.8457V8.34766H18.127V6.41016C18.127 5.83724 18.2103 5.33464 18.377 4.90234C18.5436 4.47005 18.7754 4.10547 19.0723 3.80859C19.3691 3.51172 19.7259 3.28776 20.1426 3.13672C20.5592 2.98568 21.0228 2.91016 21.5332 2.91016C22.0124 2.91016 22.4395 2.92318 22.8145 2.94922C23.1895 2.97526 23.4395 2.9987 23.5645 3.01953Z" fill="#888888"/>
</g>
<defs>
<clipPath id="clip0_64_2280">
<rect width="9.41" height="16" fill="white" transform="matrix(1 0 0 -1 15 18.7695)"/>
</clipPath>
</defs>
</svg>
