<svg width="28" height="20" viewBox="0 0 28 20" fill="none" xmlns="http://www.w3.org/2000/svg">
<g clip-path="url(#clip0_13167_3015)">
<path d="M14.2968 4.05078C15.0988 4.04036 15.815 4.24609 16.4452 4.66797C17.0754 5.08984 17.5572 5.66016 17.8905 6.37891C17.9947 6.59766 18.0624 6.86068 18.0936 7.16797C18.1249 7.47526 18.1405 7.7487 18.1405 7.98828C18.1405 8.26953 18.1301 8.55078 18.1093 8.83203C18.0884 9.11328 18.0728 9.39974 18.0624 9.69141C18.0936 9.71224 18.1327 9.72786 18.1796 9.73828C18.2264 9.7487 18.2707 9.75391 18.3124 9.75391C18.4686 9.75391 18.6197 9.71224 18.7655 9.62891C18.9113 9.54557 19.0624 9.50391 19.2186 9.50391C19.3749 9.50391 19.5363 9.55599 19.703 9.66016C19.8697 9.76432 19.953 9.90495 19.953 10.082C19.953 10.5091 19.6561 10.7643 19.0624 10.8477C18.4686 10.931 18.1718 11.1602 18.1718 11.5352C18.1718 11.5977 18.1822 11.6602 18.203 11.7227C18.2238 11.7852 18.2447 11.8477 18.2655 11.9102C18.4843 12.3789 18.7863 12.819 19.1718 13.2305C19.5572 13.6419 19.9947 13.9518 20.4843 14.1602C20.5988 14.2018 20.7134 14.2383 20.828 14.2695C20.9426 14.3008 21.0624 14.332 21.1874 14.3633C21.2707 14.3737 21.3332 14.4076 21.3749 14.4648C21.4165 14.5221 21.4374 14.5924 21.4374 14.6758C21.4374 14.9779 21.1639 15.1992 20.6171 15.3398C20.0702 15.4805 19.6926 15.5664 19.4843 15.5977C19.4009 15.7331 19.354 15.9206 19.3436 16.1602C19.3332 16.3997 19.2082 16.5195 18.9686 16.5195C18.7811 16.5195 18.5962 16.5013 18.4139 16.4648C18.2316 16.4284 18.0415 16.4102 17.8436 16.4102C17.7499 16.4102 17.6561 16.4128 17.5624 16.418C17.4686 16.4232 17.3801 16.431 17.2968 16.4414C16.7655 16.5352 16.3228 16.7799 15.9686 17.1758C15.6145 17.5716 14.9999 17.7695 14.1249 17.7695C13.2915 17.7695 12.6952 17.5716 12.3358 17.1758C11.9764 16.7799 11.5363 16.5352 11.0155 16.4414C10.9218 16.431 10.828 16.4232 10.7343 16.418C10.6405 16.4128 10.5468 16.4102 10.453 16.4102C10.2551 16.4102 10.0598 16.431 9.86707 16.4727C9.67436 16.5143 9.49988 16.5352 9.34363 16.5352C9.09363 16.5352 8.96602 16.4128 8.96082 16.168C8.95561 15.9232 8.90613 15.7331 8.81238 15.5977C8.60404 15.5664 8.22644 15.4805 7.67957 15.3398C7.13269 15.1992 6.85925 14.9779 6.85925 14.6758C6.85925 14.5924 6.88009 14.5221 6.92175 14.4648C6.96342 14.4076 7.02592 14.3737 7.10925 14.3633C7.23425 14.332 7.35404 14.3008 7.46863 14.2695C7.58321 14.2383 7.69779 14.2018 7.81238 14.1602C8.29154 13.9622 8.72644 13.6549 9.11707 13.2383C9.50769 12.8216 9.80717 12.3789 10.0155 11.9102C10.0468 11.8477 10.0728 11.7852 10.0936 11.7227C10.1145 11.6602 10.1249 11.5977 10.1249 11.5352C10.1249 11.1602 9.8254 10.9284 9.22644 10.8398C8.62748 10.7513 8.328 10.5039 8.328 10.0977C8.328 9.92057 8.40873 9.77995 8.57019 9.67578C8.73165 9.57161 8.8905 9.51953 9.04675 9.51953C9.18217 9.51953 9.32279 9.55859 9.46863 9.63672C9.61446 9.71484 9.77592 9.75391 9.953 9.75391C10.0051 9.75391 10.0546 9.7487 10.1014 9.73828C10.1483 9.72786 10.1926 9.71224 10.2343 9.69141C10.2134 9.41016 10.1952 9.12891 10.1796 8.84766C10.1639 8.56641 10.1561 8.27995 10.1561 7.98828C10.1561 7.7487 10.1718 7.47526 10.203 7.16797C10.2343 6.86068 10.2968 6.59766 10.3905 6.37891C10.7863 5.53516 11.3124 4.9388 11.9686 4.58984C12.6249 4.24089 13.4009 4.0612 14.2968 4.05078Z" fill="white" fill-opacity="0.8"/>
</g>
<defs>
<clipPath id="clip0_13167_3015">
<rect width="14.86" height="16" fill="white" transform="matrix(1 0 0 -1 6.71863 18.7695)"/>
</clipPath>
</defs>
</svg>
