<svg width="28" height="20" viewBox="0 0 28 20" fill="none" xmlns="http://www.w3.org/2000/svg">
<g clip-path="url(#clip0_13167_3012)">
<path d="M15.8905 14.0195V15.9102C15.8905 16.1081 15.8619 16.2565 15.8046 16.3555C15.7473 16.4544 15.6613 16.5039 15.5468 16.5039C15.4738 16.5039 15.4035 16.4883 15.3358 16.457C15.2681 16.4258 15.203 16.3737 15.1405 16.3008V13.6133C15.203 13.5508 15.2681 13.5039 15.3358 13.4727C15.4035 13.4414 15.4738 13.4258 15.5468 13.4258C15.6613 13.4258 15.7473 13.4753 15.8046 13.5742C15.8619 13.6732 15.8905 13.8216 15.8905 14.0195ZM18.9061 14.0352V14.4414H18.1093V14.0352C18.1093 13.8268 18.1405 13.6732 18.203 13.5742C18.2655 13.4753 18.3645 13.4258 18.4999 13.4258C18.6353 13.4258 18.7369 13.4753 18.8046 13.5742C18.8723 13.6732 18.9061 13.8268 18.9061 14.0352ZM10.2811 12.082H11.2343V11.2383H8.453V12.082H9.3905V17.1602H10.2811V12.082ZM12.8593 17.1602H13.6405V12.7539H12.8593V16.1289C12.7655 16.2539 12.677 16.3477 12.5936 16.4102C12.5103 16.4727 12.427 16.5039 12.3436 16.5039C12.2915 16.5039 12.2499 16.4883 12.2186 16.457C12.1874 16.4258 12.1665 16.3789 12.1561 16.3164C12.1561 16.306 12.1535 16.2747 12.1483 16.2227C12.1431 16.1706 12.1405 16.0977 12.1405 16.0039V12.7539H11.3593V16.2383C11.3593 16.3945 11.3645 16.5273 11.3749 16.6367C11.3853 16.7461 11.4009 16.832 11.4218 16.8945C11.4634 17.0091 11.5285 17.0924 11.6171 17.1445C11.7056 17.1966 11.8124 17.2227 11.9374 17.2227C12.0832 17.2227 12.2316 17.1784 12.3827 17.0898C12.5337 17.0013 12.6926 16.8633 12.8593 16.6758V17.1602ZM16.6874 15.8477V14.082C16.6874 13.8737 16.6822 13.6966 16.6718 13.5508C16.6613 13.4049 16.6405 13.2852 16.6093 13.1914C16.5572 13.0352 16.4764 12.9128 16.3671 12.8242C16.2577 12.7357 16.1249 12.6914 15.9686 12.6914C15.8228 12.6914 15.6796 12.7331 15.5389 12.8164C15.3983 12.8997 15.2655 13.0195 15.1405 13.1758V11.2383H14.3436V17.1602H15.1405V16.7383C15.2759 16.9049 15.4113 17.0273 15.5468 17.1055C15.6822 17.1836 15.8228 17.2227 15.9686 17.2227C16.1249 17.2227 16.2577 17.181 16.3671 17.0977C16.4764 17.0143 16.5572 16.8945 16.6093 16.7383C16.6405 16.6445 16.6613 16.5221 16.6718 16.3711C16.6822 16.2201 16.6874 16.0456 16.6874 15.8477ZM19.703 15.7539V15.6289H18.8905C18.8905 15.7956 18.8879 15.9232 18.8827 16.0117C18.8775 16.1003 18.8749 16.1549 18.8749 16.1758C18.854 16.2904 18.8124 16.3737 18.7499 16.4258C18.6874 16.4779 18.6093 16.5039 18.5155 16.5039C18.3801 16.5039 18.2785 16.4518 18.2108 16.3477C18.1431 16.2435 18.1093 16.0872 18.1093 15.8789V15.1133H19.703V14.1914C19.703 13.9518 19.6822 13.7461 19.6405 13.5742C19.5988 13.4023 19.5363 13.2643 19.453 13.1602C19.3384 13.0039 19.203 12.8867 19.0468 12.8086C18.8905 12.7305 18.7134 12.6914 18.5155 12.6914C18.3072 12.6914 18.1249 12.7305 17.9686 12.8086C17.8124 12.8867 17.677 13.0039 17.5624 13.1602C17.479 13.2643 17.4165 13.4023 17.3749 13.5742C17.3332 13.7461 17.3124 13.9518 17.3124 14.1914V15.7383C17.3124 15.9674 17.3332 16.1706 17.3749 16.3477C17.4165 16.5247 17.479 16.6654 17.5624 16.7695C17.677 16.9258 17.815 17.0404 17.9764 17.1133C18.1379 17.1862 18.3228 17.2227 18.5311 17.2227C18.7395 17.2227 18.9244 17.1836 19.0858 17.1055C19.2473 17.0273 19.3853 16.9102 19.4999 16.7539C19.5415 16.681 19.5806 16.6055 19.6171 16.5273C19.6535 16.4492 19.677 16.3633 19.6874 16.2695C19.6978 16.2279 19.703 16.1628 19.703 16.0742C19.703 15.9857 19.703 15.8789 19.703 15.7539ZM14.2655 7.59766V5.72266C14.2655 5.51432 14.2369 5.36068 14.1796 5.26172C14.1223 5.16276 14.0259 5.11328 13.8905 5.11328C13.7551 5.11328 13.6561 5.16276 13.5936 5.26172C13.5311 5.36068 13.4999 5.51432 13.4999 5.72266V7.59766C13.4999 7.80599 13.5311 7.96224 13.5936 8.06641C13.6561 8.17057 13.7551 8.22266 13.8905 8.22266C14.0259 8.22266 14.1223 8.17057 14.1796 8.06641C14.2369 7.96224 14.2655 7.80599 14.2655 7.59766ZM20.6874 14.3008C20.6874 14.8216 20.677 15.3477 20.6561 15.8789C20.6353 16.4102 20.5676 16.9258 20.453 17.4258C20.3697 17.7799 20.1978 18.0768 19.9374 18.3164C19.677 18.556 19.3749 18.6914 19.0311 18.7227C18.2082 18.8164 17.3827 18.8711 16.5546 18.8867C15.7264 18.9023 14.9009 18.9102 14.078 18.9102C13.2551 18.9102 12.4296 18.9023 11.6014 18.8867C10.7733 18.8711 9.94779 18.8164 9.12488 18.7227C8.78113 18.6914 8.47644 18.556 8.21082 18.3164C7.94519 18.0768 7.77071 17.7799 7.68738 17.4258C7.57279 16.9258 7.50509 16.4102 7.48425 15.8789C7.46342 15.3477 7.453 14.8216 7.453 14.3008C7.453 13.7904 7.46602 13.2669 7.49207 12.7305C7.51811 12.194 7.58321 11.6758 7.68738 11.1758C7.77071 10.8216 7.94519 10.5273 8.21082 10.293C8.47644 10.0586 8.78113 9.92057 9.12488 9.87891C9.94779 9.78516 10.7733 9.73047 11.6014 9.71484C12.4296 9.69922 13.2551 9.69141 14.078 9.69141C14.9009 9.69141 15.7264 9.69922 16.5546 9.71484C17.3827 9.73047 18.2082 9.78516 19.0311 9.87891C19.3749 9.92057 19.6796 10.0586 19.9452 10.293C20.2108 10.5273 20.3801 10.8216 20.453 11.1758C20.578 11.6758 20.6483 12.194 20.6639 12.7305C20.6796 13.2669 20.6874 13.7904 20.6874 14.3008ZM11.7811 2.91016H12.6874L11.6093 6.47266V8.89453H10.7186V6.47266C10.677 6.25391 10.6119 5.98828 10.5233 5.67578C10.4348 5.36328 10.3176 4.9987 10.1718 4.58203C10.078 4.30078 9.98165 4.02214 9.88269 3.74609C9.78373 3.47005 9.68738 3.19141 9.59363 2.91016H10.5468L11.1718 5.25391L11.7811 2.91016ZM15.078 5.87891V7.44141C15.078 7.68099 15.0598 7.88932 15.0233 8.06641C14.9869 8.24349 14.9218 8.38932 14.828 8.50391C14.7238 8.64974 14.5936 8.76172 14.4374 8.83984C14.2811 8.91797 14.0988 8.95703 13.8905 8.95703C13.6926 8.95703 13.5155 8.91797 13.3593 8.83984C13.203 8.76172 13.0676 8.64974 12.953 8.50391C12.8697 8.38932 12.8072 8.24349 12.7655 8.06641C12.7238 7.88932 12.703 7.68099 12.703 7.44141V5.87891C12.703 5.64974 12.7238 5.44661 12.7655 5.26953C12.8072 5.09245 12.8697 4.95182 12.953 4.84766C13.0676 4.69141 13.203 4.57422 13.3593 4.49609C13.5155 4.41797 13.6926 4.37891 13.8905 4.37891C14.0988 4.37891 14.2811 4.41797 14.4374 4.49609C14.5936 4.57422 14.7238 4.69141 14.828 4.84766C14.9218 4.95182 14.9869 5.09245 15.0233 5.26953C15.0598 5.44661 15.078 5.64974 15.078 5.87891ZM18.078 4.44141V8.89453H17.2655V8.41016C17.0988 8.59766 16.94 8.73568 16.7889 8.82422C16.6379 8.91276 16.4895 8.95703 16.3436 8.95703C16.2186 8.95703 16.1093 8.93099 16.0155 8.87891C15.9218 8.82682 15.854 8.74349 15.8124 8.62891C15.7915 8.55599 15.7759 8.46484 15.7655 8.35547C15.7551 8.24609 15.7499 8.11328 15.7499 7.95703V4.44141H16.5624V7.72266C16.5624 7.81641 16.5624 7.88932 16.5624 7.94141C16.5624 7.99349 16.5624 8.02474 16.5624 8.03516C16.5728 8.09766 16.5936 8.14453 16.6249 8.17578C16.6561 8.20703 16.6978 8.22266 16.7499 8.22266C16.8332 8.22266 16.9165 8.19141 16.9999 8.12891C17.0832 8.06641 17.1718 7.97266 17.2655 7.84766V4.44141H18.078Z" fill="white" fill-opacity="0.8"/>
</g>
<defs>
<clipPath id="clip0_13167_3012">
<rect width="13.72" height="16" fill="white" transform="matrix(1 0 0 -1 7.21863 18.7695)"/>
</clipPath>
</defs>
</svg>
