<svg width="51" height="20" viewBox="0 0 51 20" fill="none" xmlns="http://www.w3.org/2000/svg">
<g opacity="0.9" clip-path="url(#clip0_64_2286)">
<path d="M28.0919 11.0664C28.0919 12.0039 27.9409 12.8633 27.639 13.6445C27.3371 14.4258 26.9128 15.0977 26.3662 15.6602C25.8196 16.2227 25.161 16.6628 24.3906 16.9805C23.6201 17.2982 22.7612 17.457 21.8137 17.457C20.9079 17.457 20.0568 17.2852 19.2603 16.9414C18.4638 16.5977 17.7714 16.1315 17.1832 15.543C16.5949 14.9544 16.129 14.2617 15.7854 13.4648C15.4418 12.668 15.27 11.8164 15.27 10.9102C15.27 10.0039 15.4418 9.15495 15.7854 8.36328C16.129 7.57161 16.5949 6.87891 17.1832 6.28516C17.7714 5.69141 18.4638 5.22266 19.2603 4.87891C20.0568 4.53516 20.9079 4.36328 21.8137 4.36328C22.6987 4.36328 23.5082 4.51693 24.2422 4.82422C24.9762 5.13151 25.6244 5.55078 26.1866 6.08203L24.4218 7.78516C24.1824 7.55599 23.8466 7.33203 23.4145 7.11328C22.9824 6.89453 22.4488 6.78516 21.8137 6.78516C21.2515 6.78516 20.7257 6.89193 20.2364 7.10547C19.747 7.31901 19.3175 7.61328 18.9479 7.98828C18.5783 8.36328 18.2868 8.80078 18.0733 9.30078C17.8599 9.80078 17.7532 10.3372 17.7532 10.9102C17.7532 11.4831 17.8599 12.0195 18.0733 12.5195C18.2868 13.0195 18.5783 13.457 18.9479 13.832C19.3175 14.207 19.747 14.5039 20.2364 14.7227C20.7257 14.9414 21.2515 15.0508 21.8137 15.0508C22.4592 15.0508 23.0084 14.9466 23.4613 14.7383C23.9143 14.5299 24.2865 14.2799 24.578 13.9883C24.8695 13.6966 25.0908 13.3893 25.2417 13.0664C25.3927 12.7435 25.489 12.4622 25.5307 12.2227H21.8137V9.97266H27.9826C28.0138 10.1393 28.0399 10.3086 28.0607 10.4805C28.0815 10.6523 28.0919 10.8477 28.0919 11.0664ZM35.8381 9.97266V11.8477H33.9641V13.7227H32.09V11.8477H30.2315V9.97266H32.09V8.11328H33.9641V9.97266H35.8381Z" fill="#888888"/>
</g>
<defs>
<clipPath id="clip0_64_2286">
<rect width="20.57" height="16" fill="white" transform="matrix(1 0 0 -1 15.27 18.7695)"/>
</clipPath>
</defs>
</svg>
