<svg width="28" height="20" viewBox="0 0 28 20" fill="none" xmlns="http://www.w3.org/2000/svg">
<g clip-path="url(#clip0_13167_3009)">
<path d="M21.0474 6.55078C20.8494 6.84245 20.6281 7.11328 20.3833 7.36328C20.1385 7.61328 19.8755 7.84245 19.5942 8.05078C19.6047 8.11328 19.6099 8.17578 19.6099 8.23828C19.6099 8.30078 19.6099 8.36328 19.6099 8.42578C19.6099 9.3737 19.4276 10.3372 19.063 11.3164C18.7088 12.2852 18.1854 13.1628 17.4927 13.9492C16.8 14.7357 15.9432 15.3789 14.9224 15.8789C13.9015 16.3789 12.7297 16.6289 11.4067 16.6289C10.5838 16.6289 9.79736 16.5143 9.04736 16.2852C8.29736 16.056 7.60465 15.7383 6.96924 15.332C7.08382 15.3424 7.1984 15.3503 7.31299 15.3555C7.42757 15.3607 7.54736 15.3633 7.67236 15.3633C8.33903 15.3633 8.97705 15.2565 9.58643 15.043C10.1958 14.8294 10.7505 14.5247 11.2505 14.1289C10.6151 14.1185 10.0526 13.9258 9.56299 13.5508C9.0734 13.1758 8.73486 12.7018 8.54736 12.1289C8.64111 12.1497 8.73226 12.1628 8.8208 12.168C8.90934 12.1732 9.00049 12.1758 9.09424 12.1758C9.22965 12.1758 9.35986 12.168 9.48486 12.1523C9.60986 12.1367 9.73486 12.1133 9.85986 12.082C9.1932 11.9466 8.64111 11.6159 8.20361 11.0898C7.76611 10.5638 7.54736 9.95182 7.54736 9.25391V9.22266C7.73486 9.32682 7.93799 9.41016 8.15674 9.47266C8.37549 9.53516 8.60465 9.57161 8.84424 9.58203C8.45882 9.32161 8.14893 8.98047 7.91455 8.55859C7.68018 8.13672 7.56299 7.67578 7.56299 7.17578C7.56299 6.91536 7.59684 6.66276 7.66455 6.41797C7.73226 6.17318 7.82861 5.94141 7.95361 5.72266C8.30778 6.16016 8.70361 6.55599 9.14111 6.91016C9.57861 7.27474 10.05 7.58724 10.5552 7.84766C11.0604 8.10807 11.5942 8.3112 12.1567 8.45703C12.7192 8.61328 13.3026 8.70703 13.9067 8.73828C13.8755 8.63411 13.8547 8.52734 13.8442 8.41797C13.8338 8.30859 13.8286 8.19661 13.8286 8.08203C13.8286 7.29036 14.1099 6.61068 14.6724 6.04297C15.2349 5.47526 15.9172 5.19141 16.7192 5.19141C17.1255 5.19141 17.5109 5.27474 17.8755 5.44141C18.2401 5.60807 18.5526 5.83203 18.813 6.11328C19.1463 6.05078 19.4666 5.95964 19.7739 5.83984C20.0812 5.72005 20.3755 5.57682 20.6567 5.41016C20.5422 5.74349 20.3755 6.04818 20.1567 6.32422C19.938 6.60026 19.6776 6.82682 19.3755 7.00391C19.6672 6.97266 19.9536 6.91797 20.2349 6.83984C20.5161 6.76172 20.7869 6.66536 21.0474 6.55078Z" fill="white" fill-opacity="0.8"/>
</g>
<defs>
<clipPath id="clip0_13167_3009">
<rect width="14.86" height="16" fill="white" transform="matrix(1 0 0 -1 6.57861 18.7695)"/>
</clipPath>
</defs>
</svg>
