<svg width="14" height="17" viewBox="0 0 14 17" fill="none" xmlns="http://www.w3.org/2000/svg">
<g opacity="0.9" clip-path="url(#clip0_64_2293)">
<path d="M3.37713 6.48828V15.3477H0.441769V6.48828H3.37713ZM3.56449 3.75391C3.5749 4.18099 3.42917 4.54297 3.12731 4.83984C2.82545 5.13672 2.41949 5.28516 1.90945 5.28516H1.89384C1.3942 5.28516 0.998655 5.13672 0.707201 4.83984C0.415747 4.54297 0.27002 4.18099 0.27002 3.75391C0.27002 3.32682 0.420951 2.96745 0.722814 2.67578C1.02468 2.38411 1.42543 2.23828 1.92506 2.23828C2.43511 2.23828 2.83586 2.38411 3.12731 2.67578C3.41876 2.96745 3.56449 3.32682 3.56449 3.75391ZM13.9788 10.2695V15.3477H11.0434V10.6133C11.0434 10.0195 10.9263 9.53776 10.6921 9.16797C10.4579 8.79818 10.0754 8.61328 9.5445 8.61328C9.13855 8.61328 8.81327 8.72526 8.56865 8.94922C8.32404 9.17318 8.14969 9.41536 8.0456 9.67578C8.00396 9.77995 7.97534 9.89453 7.95972 10.0195C7.94411 10.1445 7.9363 10.2747 7.9363 10.4102V15.3477H5.00094C5.01135 13.3372 5.01656 11.7461 5.01656 10.5742C5.01656 9.40234 5.01656 8.51432 5.01656 7.91016C5.01656 7.30599 5.01396 6.91797 5.00875 6.74609C5.00355 6.57422 5.00094 6.48828 5.00094 6.48828H7.9363V7.78516H7.92069C8.11846 7.47266 8.41512 7.14453 8.81067 6.80078C9.20621 6.45703 9.79953 6.28516 10.5906 6.28516C11.0798 6.28516 11.53 6.36589 11.9412 6.52734C12.3524 6.6888 12.7089 6.93359 13.0107 7.26172C13.3126 7.58984 13.5494 8.00391 13.7211 8.50391C13.8929 9.00391 13.9788 9.59245 13.9788 10.2695Z" fill="#888888"/>
</g>
<defs>
<clipPath id="clip0_64_2293">
<rect width="13.71" height="16" fill="white" transform="matrix(1 0 0 -1 0.27002 16.7695)"/>
</clipPath>
</defs>
</svg>
