<svg width="13" height="17" viewBox="0 0 13 17" fill="none" xmlns="http://www.w3.org/2000/svg">
<g opacity="0.9" clip-path="url(#clip0_64_2290)">
<path d="M0.850098 6.23985C0.850098 5.41706 1.02209 4.6776 1.36609 4.02146C1.71008 3.36532 2.16874 2.80551 2.74207 2.34205C3.31539 1.87858 3.96429 1.52447 4.68876 1.27972C5.41324 1.03497 6.16116 0.912596 6.93255 0.912596C7.63096 0.912596 8.30331 1.02976 8.9496 1.2641C9.5959 1.49844 10.1666 1.82651 10.6618 2.24831C11.1569 2.67012 11.5504 3.18306 11.8423 3.78712C12.1342 4.39119 12.2801 5.06296 12.2801 5.80242C12.2801 6.48981 12.1915 7.1824 12.0143 7.8802C11.8371 8.578 11.5608 9.2055 11.1856 9.7627C10.8103 10.3199 10.3334 10.7756 9.75486 11.1297C9.17633 11.4838 8.49095 11.6608 7.69872 11.6608C7.32345 11.6608 6.93255 11.5671 6.52601 11.3796C6.11947 11.1922 5.82238 10.9266 5.63475 10.5829C5.30118 11.9264 5.051 12.8638 4.88422 13.3949C4.71743 13.9261 4.25877 14.702 3.50824 15.7227L3.38315 15.7695L3.30497 15.6758C3.28412 15.3946 3.25806 15.116 3.22679 14.84C3.19551 14.564 3.17988 14.2854 3.17988 14.0042C3.17988 13.5459 3.22418 13.0486 3.31279 12.5123C3.40139 11.9759 3.51084 11.4291 3.64114 10.8719C3.77145 10.3147 3.90956 9.77052 4.0555 9.23935C4.20144 8.70819 4.32653 8.2239 4.43077 7.78647C4.3161 7.55734 4.23792 7.30998 4.19623 7.0444C4.15453 6.77882 4.13368 6.52105 4.13368 6.27109C4.13368 5.82325 4.28222 5.3702 4.57931 4.91194C4.8764 4.45368 5.27512 4.22455 5.77547 4.22455C6.15074 4.22455 6.4374 4.34953 6.63546 4.59949C6.83352 4.84945 6.93255 5.15148 6.93255 5.50559C6.93255 6.08883 6.80225 6.65644 6.54164 7.20844C6.28104 7.76043 6.15074 8.31763 6.15074 8.88004C6.15074 9.26539 6.28625 9.57784 6.55728 9.81738C6.82831 10.0569 7.15145 10.1767 7.52672 10.1767C8.0375 10.1767 8.46489 10.0153 8.80888 9.6924C9.15287 9.36954 9.42911 8.97377 9.63759 8.5051C9.84608 8.03643 9.99462 7.53911 10.0832 7.01316C10.1718 6.4872 10.2161 6.02634 10.2161 5.63057C10.2161 5.10982 10.1275 4.64636 9.95032 4.24017C9.77311 3.83399 9.52554 3.4929 9.2076 3.2169C8.88967 2.94091 8.51701 2.73001 8.08962 2.5842C7.66223 2.43839 7.19315 2.36548 6.68237 2.36548C6.09862 2.36548 5.55136 2.46703 5.04058 2.67012C4.5298 2.87321 4.08677 3.15442 3.71151 3.51373C3.33624 3.87305 3.04176 4.30527 2.82807 4.81039C2.61437 5.31552 2.50753 5.86491 2.50753 6.45856C2.50753 7.03138 2.6248 7.47662 2.85934 7.79428C3.09388 8.11193 3.21115 8.33846 3.21115 8.47385C3.21115 8.58842 3.16945 8.79411 3.08606 9.09094C3.00267 9.38777 2.888 9.53618 2.74207 9.53618C2.72122 9.53618 2.69777 9.53097 2.67171 9.52056C2.64564 9.51014 2.61698 9.50493 2.58571 9.50493C1.94984 9.30705 1.5016 8.85921 1.241 8.16141C0.980399 7.4636 0.850098 6.82308 0.850098 6.23985Z" fill="#888888"/>
</g>
<defs>
<clipPath id="clip0_64_2290">
<rect width="11.43" height="16" fill="white" transform="matrix(1 0 0 -1 0.850098 16.7695)"/>
</clipPath>
</defs>
</svg>
