<svg width="14" height="14" viewBox="0 0 14 14" fill="none" xmlns="http://www.w3.org/2000/svg">
<path d="M7.30078 4.36133V7.42383L9.92578 8.98242L9.48828 9.7207L6.42578 7.86133V4.36133H7.30078ZM7 11.9629C7.63802 11.9629 8.24186 11.8398 8.81152 11.5938C9.38118 11.3477 9.87793 11.0127 10.3018 10.5889C10.7256 10.165 11.0605 9.67057 11.3066 9.10547C11.5527 8.54036 11.6758 7.93424 11.6758 7.28711C11.6758 6.64909 11.5527 6.04525 11.3066 5.47559C11.0605 4.90592 10.7256 4.40918 10.3018 3.98535C9.87793 3.56152 9.38346 3.22656 8.81836 2.98047C8.25326 2.73438 7.64714 2.61133 7 2.61133C6.36198 2.61133 5.75814 2.73438 5.18848 2.98047C4.61882 3.22656 4.12207 3.56152 3.69824 3.98535C3.27441 4.40918 2.93945 4.90592 2.69336 5.47559C2.44727 6.04525 2.32422 6.64909 2.32422 7.28711C2.32422 7.93424 2.44727 8.54036 2.69336 9.10547C2.93945 9.67057 3.27441 10.165 3.69824 10.5889C4.12207 11.0127 4.61654 11.3477 5.18164 11.5938C5.74674 11.8398 6.35286 11.9629 7 11.9629ZM7 1.46289C7.80208 1.46289 8.55859 1.61556 9.26953 1.9209C9.98047 2.22624 10.598 2.64323 11.1221 3.17188C11.6462 3.70052 12.0609 4.31803 12.3662 5.02441C12.6715 5.73079 12.8242 6.48503 12.8242 7.28711C12.8242 8.09831 12.6715 8.8571 12.3662 9.56348C12.0609 10.2699 11.6462 10.8874 11.1221 11.416C10.598 11.9447 9.98275 12.3594 9.27637 12.6602C8.56999 12.9609 7.8112 13.1113 7 13.1113C6.19792 13.1113 5.44141 12.9609 4.73047 12.6602C4.01953 12.3594 3.40202 11.9447 2.87793 11.416C2.35384 10.8874 1.93913 10.2699 1.63379 9.56348C1.32845 8.8571 1.17578 8.09831 1.17578 7.28711C1.17578 6.48503 1.32845 5.73079 1.63379 5.02441C1.93913 4.31803 2.35384 3.70052 2.87793 3.17188C3.40202 2.64323 4.01725 2.22624 4.72363 1.9209C5.43001 1.61556 6.1888 1.46289 7 1.46289Z" fill="#666666"/>
</svg>
