<svg width="16" height="17" viewBox="0 0 16 17" fill="none" xmlns="http://www.w3.org/2000/svg">
<g opacity="0.9" clip-path="url(#clip0_64_2284)">
<path d="M14.8789 4.55078C14.681 4.84245 14.4596 5.11328 14.2148 5.36328C13.9701 5.61328 13.707 5.84245 13.4258 6.05078C13.4362 6.11328 13.4414 6.17578 13.4414 6.23828C13.4414 6.30078 13.4414 6.36328 13.4414 6.42578C13.4414 7.3737 13.2617 8.33464 12.9023 9.30859C12.543 10.2826 12.0169 11.1628 11.3242 11.9492C10.6315 12.7357 9.77474 13.3789 8.75391 13.8789C7.73307 14.3789 6.5612 14.6289 5.23828 14.6289C4.41536 14.6289 3.62891 14.5143 2.87891 14.2852C2.12891 14.056 1.4362 13.7383 0.800781 13.332C0.915365 13.3424 1.02995 13.3503 1.14453 13.3555C1.25911 13.3607 1.37891 13.3633 1.50391 13.3633C2.17057 13.3633 2.80859 13.2565 3.41797 13.043C4.02734 12.8294 4.58203 12.5247 5.08203 12.1289C4.44661 12.1185 3.88411 11.9258 3.39453 11.5508C2.90495 11.1758 2.56641 10.7018 2.37891 10.1289C2.47266 10.1497 2.5638 10.1628 2.65234 10.168C2.74089 10.1732 2.83203 10.1758 2.92578 10.1758C3.0612 10.1758 3.19141 10.168 3.31641 10.1523C3.44141 10.1367 3.56641 10.1133 3.69141 10.082C3.02474 9.94661 2.47266 9.61589 2.03516 9.08984C1.59766 8.5638 1.37891 7.95182 1.37891 7.25391V7.22266C1.56641 7.32682 1.76953 7.41016 1.98828 7.47266C2.20703 7.53516 2.4362 7.57161 2.67578 7.58203C2.29036 7.32161 1.98047 6.98047 1.74609 6.55859C1.51172 6.13672 1.39453 5.67578 1.39453 5.17578C1.39453 4.91536 1.42839 4.66276 1.49609 4.41797C1.5638 4.17318 1.66016 3.94141 1.78516 3.72266C2.13932 4.16016 2.53516 4.55859 2.97266 4.91797C3.41016 5.27734 3.88151 5.58724 4.38672 5.84766C4.89193 6.10807 5.42578 6.3138 5.98828 6.46484C6.55078 6.61589 7.13411 6.70703 7.73828 6.73828C7.70703 6.63411 7.6862 6.52734 7.67578 6.41797C7.66536 6.30859 7.66016 6.19661 7.66016 6.08203C7.66016 5.29036 7.94141 4.61068 8.50391 4.04297C9.06641 3.47526 9.7487 3.19141 10.5508 3.19141C10.957 3.19141 11.3424 3.27474 11.707 3.44141C12.0716 3.60807 12.3841 3.83203 12.6445 4.11328C12.9779 4.05078 13.2982 3.95964 13.6055 3.83984C13.9128 3.72005 14.207 3.57682 14.4883 3.41016C14.3737 3.74349 14.207 4.04818 13.9883 4.32422C13.7695 4.60026 13.5091 4.82682 13.207 5.00391C13.4987 4.97266 13.7852 4.91797 14.0664 4.83984C14.3477 4.76172 14.6185 4.66536 14.8789 4.55078Z" fill="#888888"/>
</g>
<defs>
<clipPath id="clip0_64_2284">
<rect width="14.86" height="16" fill="white" transform="matrix(1 0 0 -1 0.410156 16.7695)"/>
</clipPath>
</defs>
</svg>
