<svg width="30" height="20" viewBox="0 0 30 20" fill="none" xmlns="http://www.w3.org/2000/svg">
<g clip-path="url(#clip0_13290_1926)">
<path d="M30 0H0V20.0002H30V0Z" fill="#F0F0F0"/>
<path d="M16.875 0H13.125V8.12496H0V11.875H13.125V19.9999H16.875V11.875H30V8.12496H16.875V0Z" fill="#D80027"/>
<path d="M23.0742 13.4785L30.0009 17.3267V13.4785H23.0742Z" fill="#0052B4"/>
<path d="M18.2617 13.4785L30.0009 20.0002V18.1561L21.5813 13.4785H18.2617Z" fill="#0052B4"/>
<path d="M26.8739 19.9998L18.2617 15.2148V19.9998H26.8739Z" fill="#0052B4"/>
<path d="M18.2617 13.4785L30.0009 20.0002V18.1561L21.5813 13.4785H18.2617Z" fill="#F0F0F0"/>
<path d="M18.2617 13.4785L30.0009 20.0002V18.1561L21.5813 13.4785H18.2617Z" fill="#D80027"/>
<path d="M5.29342 13.4785L0 16.4193V13.4785H5.29342Z" fill="#0052B4"/>
<path d="M11.7397 14.3086V20.001H1.49414L11.7397 14.3086Z" fill="#0052B4"/>
<path d="M8.41951 13.4785L0 18.1561V20.0002L11.7391 13.4785H8.41951Z" fill="#D80027"/>
<path d="M6.92666 6.52203L0 2.67383V6.52203H6.92666Z" fill="#0052B4"/>
<path d="M11.7391 6.52172L0 0V1.84418L8.41951 6.52172H11.7391Z" fill="#0052B4"/>
<path d="M3.12695 0L11.7392 4.785V0H3.12695Z" fill="#0052B4"/>
<path d="M11.7391 6.52172L0 0V1.84418L8.41951 6.52172H11.7391Z" fill="#F0F0F0"/>
<path d="M11.7391 6.52172L0 0V1.84418L8.41951 6.52172H11.7391Z" fill="#D80027"/>
<path d="M24.707 6.5209L30.0004 3.58008V6.5209H24.707Z" fill="#0052B4"/>
<path d="M18.2617 5.69244V0H28.5072L18.2617 5.69244Z" fill="#0052B4"/>
<path d="M21.5813 6.52172L30.0009 1.84418V0L18.2617 6.52172H21.5813Z" fill="#D80027"/>
</g>
<defs>
<clipPath id="clip0_13290_1926">
<rect width="30" height="20" fill="white"/>
</clipPath>
</defs>
</svg>
