<svg width="26" height="37" viewBox="0 0 26 37" fill="none" xmlns="http://www.w3.org/2000/svg">
<path d="M25.0777 18.0577C24.2153 18.1814 23.5934 17.988 22.9668 17.954C22.6147 17.9354 22.4503 18.0081 22.3867 18.3718C21.7632 21.8799 21.0761 25.3802 20.9861 28.9549C20.9644 29.8246 21.1086 30.6973 21.1676 31.5701C21.1862 31.8533 21.1924 32.1458 21.0047 32.3872C20.786 32.6688 20.5363 33.0495 20.1578 32.9148C19.7887 32.7833 20.0338 32.3949 20.0415 32.1009C20.0803 30.6045 20.5487 29.1003 20.0245 27.6101C19.4382 25.9497 18.2671 24.7319 16.9457 23.6316C15.3977 22.3426 13.5613 21.5874 11.7296 20.823C11.1123 20.5661 10.4965 20.2999 9.90401 19.992C9.49143 19.7769 9.296 19.8651 9.06025 20.2643C7.50457 22.9012 5.99697 25.5628 4.55607 28.2647C3.23769 30.7391 1.98446 33.2445 0.87548 35.8194C0.855316 35.8674 0.838255 35.9169 0.810336 35.9603C0.64903 36.2078 0.478417 36.6179 0.171313 36.4678C-0.143545 36.3146 0.0487822 35.9309 0.171313 35.6415C2.20316 30.7933 4.71117 26.1911 7.36032 21.6586C7.51542 21.3924 7.67363 21.1263 7.82718 20.8586C8.07069 20.4346 8.51429 20.0013 8.49878 19.5865C8.48016 19.1022 7.76049 19.1146 7.37273 18.8639C6.62669 18.3826 6.60652 17.6955 7.38514 17.2375C8.03967 16.8537 8.78261 16.6464 9.52711 16.6866C10.1816 16.7222 10.4996 16.4359 10.7958 15.9345C12.4167 13.1847 14.191 10.537 16.2275 8.07342C18.4502 5.38702 20.7845 2.8105 23.7686 0.919499C24.1114 0.702854 24.4573 0.452165 24.9071 0.507874C25.7105 0.608459 26.1433 1.21971 25.9571 2.16985C25.7059 3.45424 25.3646 4.72007 25.0746 5.99673C24.2898 9.44293 23.5143 12.8922 22.731 16.3384C22.6224 16.8166 22.7496 17.1029 23.2692 17.2236C23.857 17.3597 24.3859 17.6476 25.0824 18.0577H25.0777ZM11.2906 16.668C14.8021 16.6185 18.1787 16.7145 21.5507 16.9017C22.0392 16.9296 22.0672 16.6634 22.137 16.3168C22.9357 12.4001 23.8276 8.50362 24.8171 4.63032C25.0513 3.71576 25.2607 2.79348 25.4468 1.86809C25.5058 1.57408 25.5151 1.23673 25.1506 1.0696C24.8218 0.917952 24.5922 1.14698 24.3921 1.3172C23.6089 1.98415 22.8256 2.65266 22.0873 3.36913C19.9609 5.4319 17.9585 7.61228 16.0817 9.90252C14.3586 12.0024 12.7129 14.1642 11.2875 16.668H11.2906ZM20.4789 26.903C20.7379 24.0479 21.1722 21.4187 21.6654 18.7989C21.8624 17.7513 21.881 17.7327 20.8248 17.6739C17.8887 17.5114 14.9479 17.53 12.0087 17.4866C10.9711 17.4712 10.4081 17.8379 9.9738 18.7091C9.76131 19.1378 9.85748 19.26 10.2375 19.4318C11.4085 19.9626 12.5687 20.5181 13.7257 21.0798C16.4323 22.3936 19.0101 23.8653 20.4774 26.9014L20.4789 26.903ZM9.77992 17.5779C9.19053 17.6569 8.78727 17.7064 8.384 17.7667C8.232 17.7899 8.07535 17.8193 7.9373 17.8812C7.78996 17.9478 7.50457 18.0778 7.72481 18.2372C8.07069 18.4863 8.49102 18.6859 8.9067 18.7679C9.22776 18.8298 9.25878 18.3919 9.42319 18.1814C9.52866 18.0453 9.60156 17.8843 9.77837 17.5779H9.77992Z" fill="white"/>
</svg>
